<?xml version="1.0" standalone="no"?>
<!DOCTYPE svg PUBLIC "-//W3C//DTD SVG 20010904//EN"
 "http://www.w3.org/TR/2001/REC-SVG-20010904/DTD/svg10.dtd">
<svg version="1.0" xmlns="http://www.w3.org/2000/svg"
 width="720.000000pt" height="720.000000pt" viewBox="0 0 720.000000 720.000000"
 preserveAspectRatio="xMidYMid meet">
<metadata>
Created by potrace 1.14, written by Peter Selinger 2001-2017
</metadata>
<g transform="translate(0.000000,720.000000) scale(0.100000,-0.100000)"
fill="#000000" stroke="none">
<path d="M520 3600 l0 -3600 2218 2 2217 3 120 22 c292 54 533 151 770 314
206 141 362 299 506 513 182 271 287 568 319 901 6 73 10 1018 10 2778 l0
2667 -3080 0 -3080 0 0 -3600z m686 3353 c-9 -22 -426 -745 -437 -757 -5 -6
-9 154 -9 382 l0 392 226 0 c208 0 226 -1 220 -17z m4917 -31 c-16 -27 -118
-204 -228 -395 l-199 -347 -1026 -2 -1025 -3 -3 -1779 -2 -1779 -363 -629
-362 -628 -5 2407 -5 2408 -768 5 -767 5 226 393 226 392 2164 0 2164 0 -27
-48z m314 -3117 c-3 -2050 1 -1901 -58 -2130 -83 -327 -256 -630 -498 -874
-623 -626 -1591 -741 -2341 -276 -75 47 -211 147 -263 195 -5 5 336 615 367
657 1 1 38 -33 82 -75 128 -126 273 -215 442 -272 613 -205 1274 129 1482 748
62 186 60 123 60 1723 l0 1459 356 617 c196 340 359 623 363 628 10 16 12
-424 8 -2400z"/>
</g>
</svg>
