<?xml version="1.0" standalone="no"?>
<!DOCTYPE svg PUBLIC "-//W3C//DTD SVG 20010904//EN"
 "http://www.w3.org/TR/2001/REC-SVG-20010904/DTD/svg10.dtd">
<svg version="1.0" xmlns="http://www.w3.org/2000/svg"
 width="634.000000pt" height="634.000000pt" viewBox="0 0 634.000000 634.000000"
 preserveAspectRatio="xMidYMid meet">
<metadata>
Created by potrace 1.14, written by Peter Selinger 2001-2017
</metadata>
<g transform="translate(0.000000,634.000000) scale(0.100000,-0.100000)"
fill="#000000" stroke="none">
<path d="M2880 6319 c-279 -27 -584 -134 -796 -280 -80 -55 -244 -200 -347
-308 -143 -150 -348 -386 -711 -821 -551 -659 -676 -823 -815 -1065 -303 -528
-253 -1308 115 -1801 161 -216 359 -401 1019 -955 612 -513 789 -653 1000
-792 213 -140 384 -212 616 -259 99 -20 143 -23 334 -22 200 0 232 2 346 27
172 36 291 77 434 147 302 149 508 354 1256 1250 461 552 571 692 709 900 194
295 275 545 287 890 13 391 -101 778 -313 1063 -163 218 -396 433 -1170 1078
-649 541 -864 700 -1099 810 -248 116 -565 167 -865 138z m1338 -1424 c128
-18 259 -53 341 -92 79 -38 162 -123 191 -198 32 -84 33 -216 1 -297 -50 -128
-162 -236 -285 -274 -108 -34 -419 -28 -466 9 -51 39 -65 128 -35 212 8 22 15
41 15 42 0 1 -26 10 -57 19 -68 21 -245 22 -368 4 -253 -37 -530 -144 -639
-248 -114 -109 -113 -284 2 -383 60 -51 193 -118 417 -209 256 -103 502 -224
585 -288 81 -61 156 -143 222 -240 99 -147 136 -266 145 -467 12 -282 -66
-502 -242 -680 -253 -256 -649 -393 -1190 -411 -269 -9 -467 16 -695 88 -125
40 -301 123 -395 189 -155 106 -275 270 -290 393 -23 182 132 342 398 410 157
41 154 41 161 -2 28 -178 294 -383 601 -463 126 -33 306 -33 419 -1 174 50
332 163 386 277 34 71 38 163 11 237 -63 165 -231 278 -590 397 -343 114 -518
227 -673 435 -116 155 -170 312 -170 495 -1 258 80 470 237 625 235 231 729
395 1311 436 178 12 516 4 652 -15z"/>
</g>
</svg>
