<svg xmlns="http://www.w3.org/2000/svg" viewBox="0 0 512 512"><path d="M460.8 51.2H51.2C22.921 51.2 0 74.121 0 102.4v307.2c0 28.279 22.921 51.2 51.2 51.2h409.6c28.279 0 51.2-22.921 51.2-51.2V102.4c0-28.279-22.921-51.2-51.2-51.2zM25.6 148.745L178.825 256 25.6 363.264V148.745zM486.4 409.6c0 14.114-11.486 25.6-25.6 25.6H51.2c-14.114 0-25.6-11.486-25.6-25.6v-15.104l175.548-122.88 47.505 33.254c4.446 3.098 10.249 3.098 14.703 0l47.505-33.254L486.4 394.496V409.6zm0-46.345L333.175 256 486.4 148.736v214.519zm0-245.751L256 278.775 25.6 117.504V102.4c0-14.114 11.486-25.6 25.6-25.6h409.6c14.114 0 25.6 11.486 25.6 25.6v15.104z"/></svg>
