<svg width="77" height="90" fill="none" xmlns="http://www.w3.org/2000/svg">
	<g clip-path="url(#clip0)">
		<path d="M0 0h77v66c0 13.255-10.745 24-24 24H0V0z" fill="#0F0F0F" />
		<path fill="#CFCFCF" d="M64.895 2.138h9.117v62.283h-9.117z" />
		<path d="M69.463 63.023c0 10.764-8.648 19.428-19.24 19.428-10.593 0-19.24-8.664-19.24-19.428 0-10.764 8.647-19.428 19.24-19.428 10.592 0 19.24 8.665 19.24 19.428z" stroke="#CFCFCF" stroke-width="9.1" />
		<path d="M64.9 64.011l-.008-23.781-7.857-.348-5.057 8.938L64.9 64.011zM-1.3 58.569l42.733-73.96L73.625 3.432l-42.732 73.96z" fill="#0F0F0F" />
		<path d="M38.753 71.744c.056.782.38 2.473 1.238 2.989" stroke="#CFCFCF" stroke-width=".5" />
		<path fill="#CFCFCF" d="M29.888 12.06h9.117v64.679h-9.117z" />
		<path fill="#CFCFCF" d="M2.998 12.81V2.883h70.978v9.927z" />
		<path fill="#0F0F0F" d="M2.998 12.808l8.14-14.117L16.789 2 8.646 16.116zM24.796 81.912L71.568.81l6.726 3.94-46.772 81.103z" />
	</g>
	<defs>
		<clipPath id="clip0">
			<path d="M0 0h77v66c0 13.255-10.745 24-24 24H0V0z" fill="#fff" />
		</clipPath>
	</defs>
</svg>
