<svg width="71" height="84" fill="none" xmlns="http://www.w3.org/2000/svg">
	<g clip-path="url(#clip0)">
		<path d="M0 0h71v60c0 13.255-10.745 24-24 24H0V0z" fill="#0F0F0F" />
		<path fill="#CFCFCF" d="M61.895-.862h9.117v62.283h-9.117z" />
		<path d="M66.463 60.023c0 10.764-8.648 19.428-19.24 19.428-10.593 0-19.24-8.664-19.24-19.428 0-10.764 8.647-19.428 19.24-19.428 10.592 0 19.24 8.665 19.24 19.428z" stroke="#CFCFCF" stroke-width="9.1" />
		<path d="M61.9 61.011l-.008-23.781-7.857-.348-5.057 8.938L61.9 61.011zM-4.3 55.569l42.733-73.96L70.625.432l-42.732 73.96z" fill="#0F0F0F" />
		<path d="M35.753 68.744c.056.782.38 2.473 1.238 2.989" stroke="#CFCFCF" stroke-width=".5" />
		<path fill="#CFCFCF" d="M26.888 9.06h9.117v64.679h-9.117z" />
		<path fill="#CFCFCF" d="M-.002 9.81V-.117h70.978V9.81z" />
		<path fill="#0F0F0F" d="M-.003 9.808L8.14-4.31 13.788-1 5.646 13.116zM21.796 78.912L68.568-2.19l6.726 3.94-46.772 81.103z" />
	</g>
	<defs>
		<clipPath id="clip0">
			<path d="M0 0h71v60c0 13.255-10.745 24-24 24H0V0z" fill="#fff" />
		</clipPath>
	</defs>
</svg>
