<svg width="71" height="84" viewBox="0 0 71 84" fill="none" xmlns="http://www.w3.org/2000/svg">
<g clip-path="url(#clip0)">
<path d="M0 0H71V60C71 73.2548 60.2548 84 47 84H0V0Z" fill="#0F0F0F"/>
<rect x="61.8954" y="-0.862183" width="9.11723" height="62.2826" fill="#CFCFCF"/>
<path d="M66.4626 60.0231C66.4626 70.7866 57.8149 79.451 47.2226 79.451C36.6303 79.451 27.9826 70.7866 27.9826 60.0231C27.9826 49.2595 36.6303 40.5952 47.2226 40.5952C57.8149 40.5952 66.4626 49.2595 66.4626 60.0231Z" stroke="#CFCFCF" stroke-width="9.1"/>
<path d="M61.9002 61.0115L61.8925 37.2297L54.0354 36.8817L48.9782 45.82L61.9002 61.0115Z" fill="#0F0F0F"/>
<rect width="85.4182" height="37.2925" transform="matrix(0.500277 -0.865866 0.863241 0.504792 -4.29932 55.5686)" fill="#0F0F0F"/>
<path d="M35.7532 68.7443C35.8086 69.5256 36.1337 71.2171 36.9911 71.7328" stroke="#CFCFCF" stroke-width="0.5"/>
<rect x="26.8877" y="9.05975" width="9.11723" height="64.6794" fill="#CFCFCF"/>
<rect x="-0.00223541" y="9.80981" width="9.92744" height="70.9777" transform="rotate(-90 -0.00223541 9.80981)" fill="#CFCFCF"/>
<rect width="16.2957" height="6.54665" transform="matrix(0.49958 -0.866268 0.862832 0.50549 -0.00250244 9.80756)" fill="#0F0F0F"/>
<rect width="93.6233" height="7.79523" transform="matrix(0.49958 -0.866268 0.862832 0.50549 21.7961 78.9124)" fill="#0F0F0F"/>
</g>
<defs>
<clipPath id="clip0">
<path d="M0 0H71V60C71 73.2548 60.2548 84 47 84H0V0Z" fill="white"/>
</clipPath>
</defs>
</svg>
